<mxfile host="app.diagrams.net" agent="Mozilla/5.0 (Windows NT 10.0; Win64; x64) AppleWebKit/537.36 (KHTML, like Gecko) Chrome/124.0.0.0 YaBrowser/24.6.0.0 Safari/537.36" version="24.7.6">
  <diagram name="Страница — 1" id="3s2HldawPAiQNC0Kes5M">
    <mxGraphModel>
      <root>
        <mxCell id="0" />
        <mxCell id="1" parent="0" />
        <mxCell id="2" value="IELTS App" style="whiteSpace=wrap;strokeWidth=2;" vertex="1" parent="1">
          <mxGeometry x="211" width="83" height="34" as="geometry" />
        </mxCell>
        <mxCell id="3" value="Microservice 1" style="rounded=1;absoluteArcSize=1;arcSize=14;whiteSpace=wrap;strokeWidth=2;" vertex="1" parent="1">
          <mxGeometry x="193" y="103" width="118" height="34" as="geometry" />
        </mxCell>
        <mxCell id="4" value="Microservice 2" style="rounded=1;absoluteArcSize=1;arcSize=14;whiteSpace=wrap;strokeWidth=2;" vertex="1" parent="1">
          <mxGeometry x="361" y="103" width="118" height="34" as="geometry" />
        </mxCell>
        <mxCell id="5" value="Microservice 3" style="rounded=1;absoluteArcSize=1;arcSize=14;whiteSpace=wrap;strokeWidth=2;" vertex="1" parent="1">
          <mxGeometry x="74" y="206" width="118" height="34" as="geometry" />
        </mxCell>
        <mxCell id="6" value="Datastore" style="rounded=1;absoluteArcSize=1;arcSize=14;whiteSpace=wrap;strokeWidth=2;" vertex="1" parent="1">
          <mxGeometry x="348" y="206" width="85" height="34" as="geometry" />
        </mxCell>
        <mxCell id="7" value="Datastore" style="rounded=1;absoluteArcSize=1;arcSize=14;whiteSpace=wrap;strokeWidth=2;" vertex="1" parent="1">
          <mxGeometry x="499" y="206" width="85" height="34" as="geometry" />
        </mxCell>
        <mxCell id="8" value="Datastore" style="rounded=1;absoluteArcSize=1;arcSize=14;whiteSpace=wrap;strokeWidth=2;" vertex="1" parent="1">
          <mxGeometry x="91" y="309" width="85" height="34" as="geometry" />
        </mxCell>
        <mxCell id="9" value="HTTP API" style="curved=1;startArrow=none;endArrow=block;exitX=0.49;exitY=1;entryX=0.5;entryY=0;" edge="1" parent="1" source="2" target="3">
          <mxGeometry relative="1" as="geometry">
            <Array as="points" />
          </mxGeometry>
        </mxCell>
        <mxCell id="10" value="HTTP API" style="curved=1;startArrow=none;endArrow=block;exitX=0.99;exitY=0.87;entryX=0.5;entryY=0;" edge="1" parent="1" source="2" target="4">
          <mxGeometry relative="1" as="geometry">
            <Array as="points">
              <mxPoint x="420" y="69" />
            </Array>
          </mxGeometry>
        </mxCell>
        <mxCell id="11" value="HTTP API" style="curved=1;startArrow=none;endArrow=block;exitX=-0.01;exitY=0.79;entryX=0.22;entryY=0;" edge="1" parent="1" source="2" target="5">
          <mxGeometry relative="1" as="geometry">
            <Array as="points">
              <mxPoint x="32" y="69" />
              <mxPoint x="32" y="172" />
            </Array>
          </mxGeometry>
        </mxCell>
        <mxCell id="12" value="Database" style="curved=1;startArrow=none;endArrow=block;exitX=0.89;exitY=1;entryX=0.49;entryY=0;" edge="1" parent="1" source="3" target="6">
          <mxGeometry relative="1" as="geometry">
            <Array as="points">
              <mxPoint x="390" y="172" />
            </Array>
          </mxGeometry>
        </mxCell>
        <mxCell id="13" value="Database" style="curved=1;startArrow=none;endArrow=block;exitX=0.84;exitY=1;entryX=0.5;entryY=0;" edge="1" parent="1" source="4" target="7">
          <mxGeometry relative="1" as="geometry">
            <Array as="points">
              <mxPoint x="541" y="172" />
            </Array>
          </mxGeometry>
        </mxCell>
        <mxCell id="14" value="Database" style="curved=1;startArrow=none;endArrow=block;exitX=0.5;exitY=1;entryX=0.49;entryY=0;" edge="1" parent="1" source="5" target="8">
          <mxGeometry relative="1" as="geometry">
            <Array as="points" />
          </mxGeometry>
        </mxCell>
        <mxCell id="15" value="Message Queue" style="curved=1;dashed=1;dashPattern=2 3;startArrow=none;endArrow=block;exitX=0.17;exitY=1;entryX=0.5;entryY=0;" edge="1" parent="1" source="3" target="5">
          <mxGeometry relative="1" as="geometry">
            <Array as="points">
              <mxPoint x="133" y="172" />
            </Array>
          </mxGeometry>
        </mxCell>
        <mxCell id="16" value="Message Queue" style="curved=1;dashed=1;dashPattern=2 3;startArrow=none;endArrow=block;exitX=0.12;exitY=1;entryX=0.92;entryY=0;" edge="1" parent="1" source="4" target="5">
          <mxGeometry relative="1" as="geometry">
            <Array as="points">
              <mxPoint x="282" y="172" />
            </Array>
          </mxGeometry>
        </mxCell>
      </root>
    </mxGraphModel>
  </diagram>
</mxfile>
